<svg width="175" height="75" viewBox="0 0 175 75" fill="none" xmlns="http://www.w3.org/2000/svg">
<ellipse cx="36.0027" cy="35.994" rx="24.3096" ry="24.2982" fill="url(#paint0_linear_133_28)"/>
<path d="M19.2679 45.6667L18.9237 45.8654L19.2015 46.3463L19.548 46.1464L19.9344 46.25C21.8079 39.2612 28.9941 35.1142 35.9862 36.9868L36.0896 36.6005L36.4361 36.4006L36.1583 35.9196L35.814 36.1183C35.8134 36.1181 35.8129 36.118 35.8123 36.1179L35.9153 35.7333C28.4965 33.7463 20.8716 38.1465 18.8837 45.5619L19.2685 45.665C19.2683 45.6656 19.2681 45.6661 19.2679 45.6667Z" fill="white" stroke="white" stroke-width="0.8"/>
<path d="M52.5564 27.0647L52.9007 26.866L52.6228 26.385L52.2764 26.585L51.8899 26.4814C50.0218 33.4501 42.8562 37.5852 35.8843 35.7179L35.7808 36.1042L35.4344 36.3041L35.7122 36.7851L36.0565 36.5864C36.0571 36.5866 36.0576 36.5867 36.0582 36.5869L35.9552 36.9715C43.3539 38.953 50.9581 34.5648 52.9406 27.1695L52.5559 27.0664C52.556 27.0658 52.5562 27.0652 52.5564 27.0647Z" fill="white" stroke="white" stroke-width="0.8"/>
<path d="M35.8059 36.1192L35.6071 35.7751L36.0883 35.4974L36.2883 35.8438L36.6748 35.9473C34.8015 42.9354 38.9508 50.1189 45.9422 51.9914L45.8387 52.3777L46.0387 52.724L45.6536 52.9463C45.5002 53.0348 45.3179 53.0588 45.1468 53.013C37.7836 51.0409 33.4499 43.3693 35.4207 36.0179L35.8054 36.121C35.8056 36.1204 35.8057 36.1198 35.8059 36.1192Z" fill="white" stroke="white" stroke-width="0.8"/>
<path d="M36.2825 35.8492L36.4813 36.1934L36.0001 36.4711L35.8001 36.1247L35.4136 36.0212C37.2816 29.0532 33.1441 21.8903 26.1729 20.0232L26.2764 19.6369L26.0763 19.2906L26.5575 19.0129L26.7563 19.3571C26.7569 19.3572 26.7575 19.3574 26.758 19.3576L26.8611 18.9729C34.2592 20.9543 38.6501 28.5559 36.6677 35.9506L36.283 35.8475C36.2828 35.8481 36.2827 35.8487 36.2825 35.8492Z" fill="white" stroke="white" stroke-width="0.8"/>
<path d="M20.5787 46.565C20.4356 47.1515 19.864 47.528 19.2687 47.428V47.428C18.606 47.3167 18.1791 46.6641 18.3426 46.0124L24.2031 22.6463L24.7467 20.1431C24.9867 19.0382 26.0897 18.3476 27.1885 18.6144V18.6144L26.2783 23.2021L20.5787 46.565Z" fill="white"/>
<path d="M51.4503 25.2843C51.5971 24.6809 52.1858 24.2939 52.798 24.3982V24.3982C53.4766 24.5139 53.9131 25.1826 53.7459 25.8504L47.9025 49.1907L47.3736 51.6414C47.1289 52.7753 45.997 53.4844 44.8699 53.2099V53.2099L45.7722 48.6202L51.4503 25.2843Z" fill="white"/>
<path d="M69.584 28.914C69.584 28.734 69.668 28.644 69.836 28.644H71.528C71.684 28.644 71.762 28.734 71.762 28.914V40.164C71.762 40.296 71.822 40.362 71.942 40.362H78.026C78.194 40.362 78.278 40.434 78.278 40.578V41.766C78.278 41.838 78.254 41.898 78.206 41.946C78.17 41.982 78.11 42 78.026 42H69.89C69.77 42 69.686 41.976 69.638 41.928C69.602 41.88 69.584 41.808 69.584 41.712V28.914ZM81.2297 37.896C81.2297 38.436 81.3557 38.928 81.6077 39.372C81.8717 39.804 82.2197 40.152 82.6517 40.416C83.0957 40.668 83.5877 40.794 84.1277 40.794C84.6797 40.794 85.1717 40.68 85.6037 40.452C86.0357 40.224 86.4317 39.87 86.7917 39.39C86.8277 39.342 86.8637 39.318 86.8997 39.318C86.9357 39.306 86.9897 39.318 87.0617 39.354L87.9797 39.786C88.1117 39.846 88.1237 39.942 88.0157 40.074C87.6797 40.566 87.3077 40.968 86.8997 41.28C86.5037 41.592 86.0597 41.82 85.5677 41.964C85.0757 42.108 84.5297 42.18 83.9297 42.18C83.0177 42.18 82.2137 41.976 81.5177 41.568C80.8217 41.16 80.2697 40.59 79.8617 39.858C79.4657 39.126 79.2677 38.286 79.2677 37.338C79.2677 36.294 79.4717 35.4 79.8797 34.656C80.2877 33.9 80.8397 33.318 81.5357 32.91C82.2437 32.49 83.0297 32.28 83.8937 32.28C84.7817 32.28 85.5557 32.478 86.2157 32.874C86.8877 33.258 87.4097 33.816 87.7817 34.548C88.1537 35.28 88.3397 36.168 88.3397 37.212C88.3397 37.32 88.3277 37.416 88.3037 37.5C88.2797 37.572 88.2017 37.608 88.0697 37.608H81.4097C81.3497 37.608 81.3017 37.638 81.2657 37.698C81.2417 37.746 81.2297 37.812 81.2297 37.896ZM86.1437 36.474C86.2757 36.474 86.3597 36.456 86.3957 36.42C86.4317 36.384 86.4497 36.318 86.4497 36.222C86.4497 35.766 86.3477 35.334 86.1437 34.926C85.9517 34.518 85.6697 34.188 85.2977 33.936C84.9377 33.684 84.4877 33.558 83.9477 33.558C83.3837 33.558 82.8977 33.696 82.4897 33.972C82.0937 34.236 81.7877 34.59 81.5717 35.034C81.3677 35.478 81.2657 35.952 81.2657 36.456L86.1437 36.474ZM90.5363 42C90.3443 42 90.2483 41.904 90.2483 41.712V32.73C90.2483 32.55 90.3263 32.46 90.4823 32.46H91.9043C92.0483 32.46 92.1203 32.538 92.1203 32.694V33.684C92.1203 33.744 92.1323 33.786 92.1563 33.81C92.1923 33.822 92.2403 33.798 92.3003 33.738C92.6723 33.438 93.0263 33.18 93.3623 32.964C93.6983 32.736 94.0403 32.568 94.3883 32.46C94.7363 32.34 95.1143 32.28 95.5223 32.28C96.4343 32.28 97.1423 32.532 97.6463 33.036C98.1503 33.54 98.4023 34.206 98.4023 35.034V41.676C98.4023 41.892 98.3003 42 98.0963 42H96.7643C96.6683 42 96.5963 41.982 96.5483 41.946C96.5123 41.898 96.4943 41.82 96.4943 41.712V35.412C96.4943 34.884 96.3563 34.47 96.0803 34.17C95.8043 33.87 95.3783 33.72 94.8023 33.72C94.4783 33.72 94.1783 33.774 93.9023 33.882C93.6263 33.978 93.3503 34.128 93.0743 34.332C92.7983 34.524 92.4923 34.77 92.1563 35.07V41.694C92.1563 41.898 92.0423 42 91.8143 42H90.5363ZM107.562 42C107.478 42 107.406 41.976 107.346 41.928C107.298 41.88 107.274 41.808 107.274 41.712V41.028C107.274 40.944 107.25 40.896 107.202 40.884C107.154 40.872 107.1 40.896 107.04 40.956C106.884 41.1 106.686 41.268 106.446 41.46C106.206 41.652 105.906 41.82 105.546 41.964C105.186 42.108 104.76 42.18 104.268 42.18C103.524 42.18 102.852 42 102.252 41.64C101.664 41.28 101.196 40.746 100.848 40.038C100.512 39.318 100.344 38.424 100.344 37.356C100.344 36.336 100.524 35.448 100.884 34.692C101.244 33.936 101.736 33.348 102.36 32.928C102.984 32.496 103.686 32.28 104.466 32.28C105.03 32.28 105.504 32.37 105.888 32.55C106.284 32.73 106.638 32.958 106.95 33.234C107.046 33.318 107.118 33.354 107.166 33.342C107.214 33.318 107.238 33.24 107.238 33.108V28.914C107.238 28.734 107.316 28.644 107.472 28.644H108.912C109.068 28.644 109.146 28.734 109.146 28.914V41.694C109.146 41.802 109.122 41.88 109.074 41.928C109.026 41.976 108.936 42 108.804 42H107.562ZM107.238 34.692C106.89 34.344 106.542 34.074 106.194 33.882C105.846 33.69 105.456 33.594 105.024 33.594C104.496 33.594 104.022 33.732 103.602 34.008C103.194 34.284 102.87 34.698 102.63 35.25C102.402 35.79 102.288 36.474 102.288 37.302C102.288 38.142 102.408 38.826 102.648 39.354C102.888 39.882 103.206 40.272 103.602 40.524C104.01 40.764 104.454 40.884 104.934 40.884C105.366 40.884 105.756 40.782 106.104 40.578C106.452 40.374 106.728 40.122 106.932 39.822C107.136 39.51 107.238 39.204 107.238 38.904V34.692ZM112.252 42C112.168 42 112.102 41.976 112.054 41.928C112.006 41.88 111.982 41.82 111.982 41.748V28.95C111.982 28.854 112.006 28.782 112.054 28.734C112.114 28.674 112.186 28.644 112.27 28.644H116.644C118.3 28.644 119.572 28.938 120.46 29.526C121.348 30.114 121.792 30.978 121.792 32.118C121.792 32.826 121.606 33.42 121.234 33.9C120.862 34.38 120.262 34.776 119.434 35.088C119.386 35.1 119.362 35.13 119.362 35.178C119.362 35.214 119.386 35.238 119.434 35.25C120.322 35.49 120.988 35.868 121.432 36.384C121.888 36.888 122.116 37.566 122.116 38.418C122.116 39.63 121.66 40.53 120.748 41.118C119.848 41.706 118.534 42 116.806 42H112.252ZM116.716 40.47C117.772 40.47 118.558 40.29 119.074 39.93C119.59 39.558 119.848 39.012 119.848 38.292C119.848 37.764 119.716 37.338 119.452 37.014C119.2 36.678 118.852 36.432 118.408 36.276C117.964 36.12 117.46 36.042 116.896 36.042H114.448C114.256 36.042 114.16 36.12 114.16 36.276V40.2C114.16 40.38 114.226 40.47 114.358 40.47H116.716ZM116.896 34.458C117.232 34.458 117.556 34.428 117.868 34.368C118.192 34.296 118.486 34.182 118.75 34.026C119.014 33.858 119.224 33.642 119.38 33.378C119.536 33.102 119.614 32.766 119.614 32.37C119.614 31.638 119.344 31.092 118.804 30.732C118.276 30.36 117.568 30.174 116.68 30.174H114.43C114.25 30.174 114.16 30.252 114.16 30.408V34.206C114.16 34.374 114.226 34.458 114.358 34.458H116.896ZM128.507 42.18C127.583 42.18 126.773 41.976 126.077 41.568C125.381 41.148 124.841 40.572 124.457 39.84C124.073 39.096 123.881 38.244 123.881 37.284C123.881 36.288 124.079 35.418 124.475 34.674C124.871 33.918 125.417 33.33 126.113 32.91C126.821 32.49 127.625 32.28 128.525 32.28C129.461 32.28 130.271 32.496 130.955 32.928C131.651 33.348 132.191 33.936 132.575 34.692C132.959 35.436 133.151 36.294 133.151 37.266C133.151 38.226 132.953 39.078 132.557 39.822C132.173 40.554 131.633 41.13 130.937 41.55C130.241 41.97 129.431 42.18 128.507 42.18ZM128.543 40.83C129.107 40.83 129.587 40.686 129.983 40.398C130.379 40.11 130.679 39.702 130.883 39.174C131.099 38.634 131.207 37.986 131.207 37.23C131.207 36.474 131.099 35.826 130.883 35.286C130.679 34.746 130.373 34.332 129.965 34.044C129.569 33.744 129.089 33.594 128.525 33.594C127.961 33.594 127.475 33.744 127.067 34.044C126.671 34.332 126.365 34.746 126.149 35.286C125.933 35.826 125.825 36.474 125.825 37.23C125.825 37.986 125.933 38.634 126.149 39.174C126.365 39.702 126.671 40.11 127.067 40.398C127.475 40.686 127.967 40.83 128.543 40.83ZM139.282 42.18C138.358 42.18 137.548 41.976 136.852 41.568C136.156 41.148 135.616 40.572 135.232 39.84C134.848 39.096 134.656 38.244 134.656 37.284C134.656 36.288 134.854 35.418 135.25 34.674C135.646 33.918 136.192 33.33 136.888 32.91C137.596 32.49 138.4 32.28 139.3 32.28C140.236 32.28 141.046 32.496 141.73 32.928C142.426 33.348 142.966 33.936 143.35 34.692C143.734 35.436 143.926 36.294 143.926 37.266C143.926 38.226 143.728 39.078 143.332 39.822C142.948 40.554 142.408 41.13 141.712 41.55C141.016 41.97 140.206 42.18 139.282 42.18ZM139.318 40.83C139.882 40.83 140.362 40.686 140.758 40.398C141.154 40.11 141.454 39.702 141.658 39.174C141.874 38.634 141.982 37.986 141.982 37.23C141.982 36.474 141.874 35.826 141.658 35.286C141.454 34.746 141.148 34.332 140.74 34.044C140.344 33.744 139.864 33.594 139.3 33.594C138.736 33.594 138.25 33.744 137.842 34.044C137.446 34.332 137.14 34.746 136.924 35.286C136.708 35.826 136.6 36.474 136.6 37.23C136.6 37.986 136.708 38.634 136.924 39.174C137.14 39.702 137.446 40.11 137.842 40.398C138.25 40.686 138.742 40.83 139.318 40.83ZM154.576 41.658C154.624 41.742 154.63 41.82 154.594 41.892C154.57 41.964 154.498 42 154.378 42H152.776C152.692 42 152.62 41.976 152.56 41.928C152.5 41.88 152.452 41.814 152.416 41.73L149.95 37.374C149.926 37.302 149.896 37.26 149.86 37.248C149.824 37.236 149.776 37.266 149.716 37.338L148.006 39.048C147.958 39.096 147.922 39.15 147.898 39.21C147.874 39.258 147.862 39.33 147.862 39.426V41.658C147.862 41.79 147.832 41.88 147.772 41.928C147.724 41.976 147.634 42 147.502 42H146.26C146.14 42 146.056 41.982 146.008 41.946C145.972 41.898 145.954 41.82 145.954 41.712V28.914C145.954 28.734 146.032 28.644 146.188 28.644H147.628C147.784 28.644 147.862 28.734 147.862 28.914V36.96C147.862 37.044 147.874 37.098 147.898 37.122C147.934 37.134 147.988 37.104 148.06 37.032L152.164 32.694C152.32 32.538 152.458 32.46 152.578 32.46H153.928C154.072 32.46 154.156 32.496 154.18 32.568C154.204 32.64 154.162 32.73 154.054 32.838L151.318 35.628C151.27 35.676 151.24 35.724 151.228 35.772C151.216 35.82 151.234 35.898 151.282 36.006L154.576 41.658Z" fill="white"/>
<defs>
<linearGradient id="paint0_linear_133_28" x1="60.3122" y1="35.994" x2="11.6931" y2="35.994" gradientUnits="userSpaceOnUse">
<stop stop-color="#3B5FA0"/>
<stop offset="1" stop-color="#283E65"/>
</linearGradient>
</defs>
</svg>
